{"title":"Weekend at Bernie's 1989 DvDrip XviD AC3 greenbud1969","uid":11818075,"size":1506282833,"categoryP":"video","categoryS":"movies","magnet":"?xt=urn:btih:b59d0f6444013adda1587c7ff05167e6eeec3d01&amp;dn=Weekend+at+Bernie%27s+1989+DvDrip+XviD+AC3+greenbud1969&amp;tr=udp%3A%2F%2Ftracker.openbittorrent.com%3A80&amp;tr=udp%3A%2F%2Fopen.demonii.com%3A1337&amp;tr=udp%3A%2F%2Ftracker.coppersurfer.tk%3A6969&amp;tr=udp%3A%2F%2Fexodus.desync.com%3A6969","seeders":6,"leechers":5,"uploader":"greenbud1969","files":4,"time":1429162554,"description":"General\nComplete name                            : Weekend at Bernie's 1989 DvDrip XviD AC3 greenbud1969\nFormat                                   : AVI\nFormat/Info                              : Audio Video Interleave\nFile size                                : 1.37 GiB\nDuration                                 : 1h 38mn\nOverall bit rate                         : 1 990 Kbps\nWriting application                      : VirtualDubMod 1.5.4.1 (build 2178/release)\nWriting library                          : VirtualDubMod build 2178/release\n\nVideo\nID                                       : 0\nFormat                                   : MPEG-4 Visual\nFormat profile                           : Advanced Simple@L5\nFormat settings, BVOP                    : 1\nFormat settings, QPel                    : No\nFormat settings, GMC                     : No warppoints\nFormat settings, Matrix                  : Custom\nCodec ID                                 : XVID\nCodec ID/Hint                            : XviD\nDuration                                 : 1h 38mn\nBit rate                                 : 1 791 Kbps\nWidth                                    : 720 pixels\nHeight                                   : 400 pixels\nDisplay aspect ratio                     : 16:9\nFrame rate                               : 23.976 fps\nColor space                              : YUV\nChroma subsampling                       : 4:2:0\nBit depth                                : 8 bits\nScan type                                : Progressive\nCompression mode                         : Lossy\nBits/(Pixel*Frame)                       : 0.259\nStream size                              : 1.23 GiB (90%)\nWriting library                          : XviD 64\n\nAudio\nID                                       : 1\nFormat                                   : AC-3\nFormat/Info                              : Audio Coding 3\nFormat profile                           : Dolby Digital\nMode extension                           : CM (complete main)\nFormat settings, Endianness              : Big\nCodec ID                                 : 2000\nDuration                                 : 1h 38mn\nBit rate mode                            : Constant\nBit rate                                 : 192 Kbps\nChannel(s)                               : 2 channels\nChannel positions                        : Front: L R\nSampling rate                            : 48.0 KHz\nBit depth                                : 16 bits\nCompression mode                         : Lossy\nStream size                              : 135 MiB (10%)\nAlignment                                : Split accross interleaves\nInterleave, duration                     : 96 ms (2.30 video frames)\nInterleave, preload duration             : 96 ms\nLanguage                                 : English\n\n\nIMDb Link:  &lt;a href=&quot; http://www.imdb.com/title/tt0098627/&quot; rel=&quot;nofollow&quot; target=&quot;_NEW&quot;&gt; http://www.imdb.com/title/tt0098627/&lt;/a&gt;\n\nAndrew McCarthy and Jonathan Silverman star as ambitious young employees who accidentally uncover an embezzlement scam in the company. Bernie, their boss, rewards their efforts by inviting them to his beachside pleasure palace for the weekend. When the boys arrive, they find that Bernie has been bumped off. But even a stiff won't stop this party. Aided by the charms of Gwen, the boys make quite a splash as they dodge bullets, babes and bodies in the wackiest, wildest weekend of their lives.\n\n\nBernie Lomax would be the perfect host except for one small thing...He's dead.\n\n\nNotes\n\nIf your want to convert this movie or any of my other releases I recommend using ConvertXtoDVD or you can burn as a data disc with any programs such as CyberLink Power2Go, Roxio or Nero \n\n\nAll stand-alone divx players compatible\n\n\nSample and Optional English .srt Included\n\n\nScreenshots &amp; Thumbnail\n\n    &lt;a href=&quot;\nhttp://lookpic.com/O/i2/1173/m1YSeVNv.jpeg&quot; rel=&quot;nofollow&quot; target=&quot;_NEW&quot;&gt;\nhttp://lookpic.com/O/i2/1173/m1YSeVNv.jpeg&lt;/a&gt;\n &lt;a href=&quot;\nhttp://lookpic.com/O/i2/951/BZO9M9Bw.jpeg&quot; rel=&quot;nofollow&quot; target=&quot;_NEW&quot;&gt;\nhttp://lookpic.com/O/i2/951/BZO9M9Bw.jpeg&lt;/a&gt;\n &lt;a href=&quot;\nhttp://lookpic.com/O/i2/69/oqSZCJNk.jpeg&quot; rel=&quot;nofollow&quot; target=&quot;_NEW&quot;&gt;\nhttp://lookpic.com/O/i2/69/oqSZCJNk.jpeg&lt;/a&gt;\n &lt;a href=&quot;\nhttp://lookpic.com/O/i2/619/duorj7k1.jpeg&quot; rel=&quot;nofollow&quot; target=&quot;_NEW&quot;&gt;\nhttp://lookpic.com/O/i2/619/duorj7k1.jpeg&lt;/a&gt;\n &lt;a href=&quot;\nhttp://lookpic.com/O/i2/708/xH9HuxRj.jpeg&quot; rel=&quot;nofollow&quot; target=&quot;_NEW&quot;&gt;\nhttp://lookpic.com/O/i2/708/xH9HuxRj.jpeg&lt;/a&gt;\n &lt;a href=&quot;\nhttp://lookpic.com/O/i2/1731/KWhaTv69.jpeg&quot; rel=&quot;nofollow&quot; target=&quot;_NEW&quot;&gt;\nhttp://lookpic.com/O/i2/1731/KWhaTv69.jpeg&lt;/a&gt;\n &lt;a href=&quot;\nhttp://lookpic.com/O/i2/1385/k4QLqS0G.jpeg&quot; rel=&quot;nofollow&quot; target=&quot;_NEW&quot;&gt;\nhttp://lookpic.com/O/i2/1385/k4QLqS0G.jpeg&lt;/a&gt;\n\n\nGREETZ\n\n\nBlackjesus, Hive-CM8, ViP3R, THC, SANTi, CRYS, AQOS, EVO, playXD, SuperNova, MiLLENiUM, MAJESTiC, FUM, AFG and respect to all pirate groups and encoders past and present. Sharing is caring.\n\n\nALSO IF YOU HAVE ANY REQUESTS DON'T HESITATE TO ASK. I MIGHT HAVE WHAT YOUR LOOKING FOR. YOU NEVER KNOW. IT NEVER HURTS TO ASK. EMAIL ME AT greenbud1969 AT hotmail dot com OR LEAVE REQUESTS IN COMMENTS","torrent":{"xt":"urn:btih:b59d0f6444013adda1587c7ff05167e6eeec3d01","amp;dn":"Weekend+at+Bernie%27s+1989+DvDrip+XviD+AC3+greenbud1969","amp;tr":["udp%3A%2F%2Ftracker.openbittorrent.com%3A80","udp%3A%2F%2Fopen.demonii.com%3A1337","udp%3A%2F%2Ftracker.coppersurfer.tk%3A6969","udp%3A%2F%2Fexodus.desync.com%3A6969"],"infoHash":"b59d0f6444013adda1587c7ff05167e6eeec3d01","infoHashBuffer":{"type":"Buffer","data":[181,157,15,100,68,1,58,221,161,88,124,127,240,81,103,230,238,236,61,1]},"announce":[],"urlList":[]}}